<?xml version="1.0" encoding="UTF-8" standalone="no"?>
<svg
   xmlns:dc="http://purl.org/dc/elements/1.1/"
   xmlns:cc="http://creativecommons.org/ns#"
   xmlns:rdf="http://www.w3.org/1999/02/22-rdf-syntax-ns#"
   xmlns:svg="http://www.w3.org/2000/svg"
   xmlns="http://www.w3.org/2000/svg"
   xmlns:xlink="http://www.w3.org/1999/xlink"
   xmlns:sodipodi="http://sodipodi.sourceforge.net/DTD/sodipodi-0.dtd"
   xmlns:inkscape="http://www.inkscape.org/namespaces/inkscape"
   width="210mm"
   height="297mm"
   viewBox="0 0 210 297"
   version="1.1"
   id="svg8"
   inkscape:version="1.0.2 (e86c870879, 2021-01-15)"
   sodipodi:docname="guix_intro_overview.svg">
  <defs
     id="defs2">
    <linearGradient
       inkscape:collect="always"
       xlink:href="#linearGradient4702-3"
       id="linearGradient3936"
       gradientUnits="userSpaceOnUse"
       gradientTransform="matrix(1.4874381,0,0,1.4874381,1284.8057,-24.050665)"
       x1="142.96875"
       y1="63.65625"
       x2="176.60477"
       y2="70.667412" />
    <linearGradient
       id="linearGradient4702-3">
      <stop
         style="stop-color:#ff0000;stop-opacity:0.58431375;"
         offset="0"
         id="stop4704-1" />
      <stop
         style="stop-color:#ffcc00;stop-opacity:1;"
         offset="1"
         id="stop4706-8" />
    </linearGradient>
    <linearGradient
       inkscape:collect="always"
       xlink:href="#linearGradient4702-3"
       id="linearGradient3932"
       gradientUnits="userSpaceOnUse"
       gradientTransform="matrix(1.4874381,0,0,1.4874381,1284.7576,-1291.8882)"
       x1="113.5146"
       y1="1004.8033"
       x2="78.000107"
       y2="922.07178" />
    <linearGradient
       inkscape:collect="always"
       xlink:href="#linearGradient4696-5"
       id="linearGradient3929"
       gradientUnits="userSpaceOnUse"
       gradientTransform="matrix(-0.83291399,0,0,0.83291399,1519.4606,-667.62588)"
       x1="108.08774"
       y1="1025.709"
       x2="80.655251"
       y2="1043.709" />
    <linearGradient
       id="linearGradient4696-5">
      <stop
         style="stop-color:#ffb638;stop-opacity:1;"
         offset="0"
         id="stop4698-6" />
      <stop
         style="stop-color:#f0ae26;stop-opacity:1;"
         offset="1"
         id="stop4700-2" />
    </linearGradient>
    <linearGradient
       inkscape:collect="always"
       xlink:href="#linearGradient4702-3"
       id="linearGradient3926"
       gradientUnits="userSpaceOnUse"
       gradientTransform="matrix(-1.4874381,0,0,1.4874381,1586.895,-24.051145)"
       x1="142.96875"
       y1="63.65625"
       x2="177.04297"
       y2="69.791016" />
    <linearGradient
       inkscape:collect="always"
       xlink:href="#linearGradient4702-3"
       id="linearGradient1308"
       gradientUnits="userSpaceOnUse"
       gradientTransform="matrix(1.4874381,0,0,1.4874381,1284.8057,-24.050665)"
       x1="142.96875"
       y1="63.65625"
       x2="176.60477"
       y2="70.667412" />
    <linearGradient
       inkscape:collect="always"
       xlink:href="#linearGradient4702-3"
       id="linearGradient1310"
       gradientUnits="userSpaceOnUse"
       gradientTransform="matrix(1.4874381,0,0,1.4874381,1284.7576,-1291.8882)"
       x1="113.5146"
       y1="1004.8033"
       x2="78.000107"
       y2="922.07178" />
    <linearGradient
       inkscape:collect="always"
       xlink:href="#linearGradient4696-5"
       id="linearGradient1312"
       gradientUnits="userSpaceOnUse"
       gradientTransform="matrix(-0.83291399,0,0,0.83291399,1519.4606,-667.62588)"
       x1="108.08774"
       y1="1025.709"
       x2="80.655251"
       y2="1043.709" />
    <linearGradient
       inkscape:collect="always"
       xlink:href="#linearGradient4702-3"
       id="linearGradient1314"
       gradientUnits="userSpaceOnUse"
       gradientTransform="matrix(-1.4874381,0,0,1.4874381,1586.895,-24.051145)"
       x1="142.96875"
       y1="63.65625"
       x2="177.04297"
       y2="69.791016" />
  </defs>
  <sodipodi:namedview
     id="base"
     pagecolor="#ffffff"
     bordercolor="#666666"
     borderopacity="1.0"
     inkscape:pageopacity="0.0"
     inkscape:pageshadow="2"
     inkscape:zoom="0.98994949"
     inkscape:cx="232.1405"
     inkscape:cy="742.6173"
     inkscape:document-units="mm"
     inkscape:current-layer="layer1"
     inkscape:document-rotation="0"
     showgrid="false"
     inkscape:window-width="1916"
     inkscape:window-height="1033"
     inkscape:window-x="0"
     inkscape:window-y="22"
     inkscape:window-maximized="0" />
  <metadata
     id="metadata5">
    <rdf:RDF>
      <cc:Work
         rdf:about="">
        <dc:format>image/svg+xml</dc:format>
        <dc:type
           rdf:resource="http://purl.org/dc/dcmitype/StillImage" />
        <dc:title />
      </cc:Work>
    </rdf:RDF>
  </metadata>
  <g
     inkscape:label="Layer 1"
     inkscape:groupmode="layer"
     id="layer1">
    <text
       xml:space="preserve"
       style="font-style:normal;font-weight:normal;font-size:10.5833px;line-height:1.25;font-family:sans-serif;fill:#000000;fill-opacity:1;stroke:none;stroke-width:0.264583"
       x="20.566851"
       y="26.322052"
       id="text14"><tspan
         sodipodi:role="line"
         id="tspan12"
         x="20.566851"
         y="26.322052"
         style="stroke-width:0.264583">channel(s)</tspan></text>
    <text
       xml:space="preserve"
       style="font-style:normal;font-weight:normal;font-size:10.5833px;line-height:1.25;font-family:sans-serif;text-align:center;text-anchor:middle;fill:#000000;fill-opacity:1;stroke:none;stroke-width:0.264583"
       x="156.79008"
       y="13.01819"
       id="text26"><tspan
         sodipodi:role="line"
         id="tspan24"
         x="156.79008"
         y="13.01819"
         style="text-align:center;text-anchor:middle;stroke-width:0.264583">substitution</tspan><tspan
         sodipodi:role="line"
         x="156.79008"
         y="26.247314"
         style="text-align:center;text-anchor:middle;stroke-width:0.264583"
         id="tspan28">server(s)</tspan></text>
    <text
       xml:space="preserve"
       style="font-style:normal;font-weight:normal;font-size:10.5833px;line-height:1.25;font-family:sans-serif;fill:#000000;fill-opacity:1;stroke:none;stroke-width:0.264583"
       x="6.3863978"
       y="75.278801"
       id="text40"><tspan
         sodipodi:role="line"
         id="tspan38"
         x="6.3863978"
         y="75.278801"
         style="stroke-width:0.264583">package</tspan><tspan
         sodipodi:role="line"
         x="6.3863978"
         y="88.507927"
         style="stroke-width:0.264583"
         id="tspan42">defintions</tspan></text>
    <text
       xml:space="preserve"
       style="font-style:normal;font-weight:normal;font-size:10.5833px;line-height:1.25;font-family:sans-serif;fill:#000000;fill-opacity:1;stroke:none;stroke-width:0.264583"
       x="76.422821"
       y="80.223289"
       id="text48"><tspan
         sodipodi:role="line"
         x="76.422821"
         y="80.223289"
         style="stroke-width:0.264583"
         id="tspan46">derivations</tspan></text>
    <text
       xml:space="preserve"
       style="font-style:normal;font-weight:normal;font-size:10.5833px;line-height:1.25;font-family:sans-serif;fill:#000000;fill-opacity:1;stroke:none;stroke-width:0.264583"
       x="155.01949"
       y="70.957146"
       id="text54"><tspan
         sodipodi:role="line"
         x="155.01949"
         y="70.957146"
         style="stroke-width:0.264583"
         id="tspan52">built</tspan><tspan
         sodipodi:role="line"
         x="155.01949"
         y="84.186272"
         style="stroke-width:0.264583"
         id="tspan56">packages</tspan></text>
    <text
       xml:space="preserve"
       style="font-style:normal;font-weight:normal;font-size:5.64444px;line-height:1.25;font-family:sans-serif;fill:#000000;fill-opacity:1;stroke:none;stroke-width:0.264583"
       x="9.4348173"
       y="104.08052"
       id="text78"><tspan
         sodipodi:role="line"
         id="tspan76"
         x="9.4348173"
         y="104.08052"
         style="font-size:5.64444px;stroke-width:0.264583">pkg1</tspan></text>
    <text
       xml:space="preserve"
       style="font-style:normal;font-weight:normal;font-size:5.64444px;line-height:1.25;font-family:sans-serif;fill:#000000;fill-opacity:1;stroke:none;stroke-width:0.264583"
       x="32.688183"
       y="115.19866"
       id="text82"><tspan
         sodipodi:role="line"
         id="tspan80"
         x="32.688183"
         y="115.19866"
         style="font-size:5.64444px;stroke-width:0.264583">pkg2</tspan></text>
    <text
       xml:space="preserve"
       style="font-style:normal;font-weight:normal;font-size:5.64444px;line-height:1.25;font-family:sans-serif;fill:#000000;fill-opacity:1;stroke:none;stroke-width:0.264583"
       x="17.492237"
       y="130.25548"
       id="text86"><tspan
         sodipodi:role="line"
         id="tspan84"
         x="17.492237"
         y="130.25548"
         style="font-size:5.64444px;stroke-width:0.264583">pkg3</tspan></text>
    <text
       xml:space="preserve"
       style="font-style:normal;font-weight:normal;font-size:5.64444px;line-height:1.25;font-family:sans-serif;fill:#000000;fill-opacity:1;stroke:none;stroke-width:0.264583"
       x="87.873291"
       y="105.68253"
       id="text90"><tspan
         sodipodi:role="line"
         id="tspan88"
         x="87.873291"
         y="105.68253"
         style="font-size:5.64444px;stroke-width:0.264583">pkg1</tspan></text>
    <text
       xml:space="preserve"
       style="font-style:normal;font-weight:normal;font-size:5.64444px;line-height:1.25;font-family:sans-serif;fill:#000000;fill-opacity:1;stroke:none;stroke-width:0.264583"
       x="111.12666"
       y="116.80067"
       id="text94"><tspan
         sodipodi:role="line"
         id="tspan92"
         x="111.12666"
         y="116.80067"
         style="font-size:5.64444px;stroke-width:0.264583">pkg2</tspan></text>
    <text
       xml:space="preserve"
       style="font-style:normal;font-weight:normal;font-size:5.64444px;line-height:1.25;font-family:sans-serif;fill:#000000;fill-opacity:1;stroke:none;stroke-width:0.264583"
       x="95.93071"
       y="131.85748"
       id="text98"><tspan
         sodipodi:role="line"
         id="tspan96"
         x="95.93071"
         y="131.85748"
         style="font-size:5.64444px;stroke-width:0.264583">pkg3</tspan></text>
    <text
       xml:space="preserve"
       style="font-style:normal;font-weight:normal;font-size:5.64444px;line-height:1.25;font-family:sans-serif;fill:#000000;fill-opacity:1;stroke:none;stroke-width:0.264583"
       x="158.10394"
       y="104.95103"
       id="text102"><tspan
         sodipodi:role="line"
         id="tspan100"
         x="158.10394"
         y="104.95103"
         style="font-size:5.64444px;stroke-width:0.264583">pkg1</tspan></text>
    <text
       xml:space="preserve"
       style="font-style:normal;font-weight:normal;font-size:5.64444px;line-height:1.25;font-family:sans-serif;fill:#000000;fill-opacity:1;stroke:none;stroke-width:0.264583"
       x="158.67874"
       y="119.47095"
       id="text106"><tspan
         sodipodi:role="line"
         id="tspan104"
         x="158.67874"
         y="119.47095"
         style="font-size:5.64444px;stroke-width:0.264583">pkg2</tspan></text>
    <text
       xml:space="preserve"
       style="font-style:normal;font-weight:normal;font-size:5.64444px;line-height:1.25;font-family:sans-serif;fill:#000000;fill-opacity:1;stroke:none;stroke-width:0.264583"
       x="158.22386"
       y="134.52776"
       id="text110"><tspan
         sodipodi:role="line"
         id="tspan108"
         x="158.22386"
         y="134.52776"
         style="font-size:5.64444px;stroke-width:0.264583">pkg3</tspan></text>
    <text
       xml:space="preserve"
       style="font-style:normal;font-weight:normal;font-size:5.64444px;line-height:1.25;font-family:sans-serif;fill:#000000;fill-opacity:1;stroke:none;stroke-width:0.264583"
       x="14.231076"
       y="181.6356"
       id="text114"><tspan
         sodipodi:role="line"
         id="tspan112"
         x="14.231076"
         y="181.6356"
         style="font-size:5.64444px;stroke-width:0.264583">profile1</tspan></text>
    <text
       xml:space="preserve"
       style="font-style:normal;font-weight:normal;font-size:5.64444px;line-height:1.25;font-family:sans-serif;fill:#000000;fill-opacity:1;stroke:none;stroke-width:0.264583"
       x="14.513735"
       y="193.91687"
       id="text118"><tspan
         sodipodi:role="line"
         id="tspan116"
         x="14.513735"
         y="193.91687"
         style="font-size:5.64444px;stroke-width:0.264583">profile1-gen</tspan></text>
    <text
       xml:space="preserve"
       style="font-style:normal;font-weight:normal;font-size:5.64444px;line-height:1.25;font-family:sans-serif;fill:#000000;fill-opacity:1;stroke:none;stroke-width:0.264583"
       x="141.89308"
       y="178.76105"
       id="text122"><tspan
         sodipodi:role="line"
         id="tspan120"
         x="141.89308"
         y="178.76105"
         style="font-size:5.64444px;stroke-width:0.264583">guix environment</tspan></text>
    <text
       xml:space="preserve"
       style="font-style:normal;font-weight:normal;font-size:5.64444px;line-height:1.25;font-family:sans-serif;fill:#000000;fill-opacity:1;stroke:none;stroke-width:0.264583"
       x="78.564934"
       y="180.17348"
       id="text126"><tspan
         sodipodi:role="line"
         id="tspan124"
         x="78.564934"
         y="180.17348"
         style="font-size:5.64444px;stroke-width:0.264583">profile1</tspan></text>
    <text
       xml:space="preserve"
       style="font-style:normal;font-weight:normal;font-size:5.64444px;line-height:1.25;font-family:sans-serif;fill:#000000;fill-opacity:1;stroke:none;stroke-width:0.264583"
       x="79.51577"
       y="193.12291"
       id="text130"><tspan
         sodipodi:role="line"
         id="tspan128"
         x="79.51577"
         y="193.12291"
         style="font-size:5.64444px;stroke-width:0.264583">profile1-gen</tspan></text>
    <g
       id="g1001"
       transform="translate(-2.1868174,-9.0085931)">
      <g
         id="g993"
         transform="translate(2.71004,11.40627)">
        <text
           xml:space="preserve"
           style="font-style:normal;font-weight:normal;font-size:5.64444px;line-height:1.25;font-family:sans-serif;fill:#000000;fill-opacity:1;stroke:none;stroke-width:0.264583"
           x="11.551158"
           y="38.654739"
           id="text18"><tspan
             sodipodi:role="line"
             id="tspan16"
             x="11.551158"
             y="38.654739"
             style="font-size:5.64444px;stroke-width:0.264583">official repo</tspan></text>
        <g
           id="g130"
           transform="matrix(0.01970621,0,0,0.01970621,5.5865472,34.637427)">
          <path
             d="M 128.00106,0 C 57.317293,0 0,57.306694 0,128.00106 c 0,56.55422 36.6762,104.53448 87.534937,121.45984 6.397085,1.18488 8.745651,-2.77674 8.745651,-6.15757 0,-3.05229 -0.1187,-13.13543 -0.173811,-23.83115 -35.610019,7.74305 -43.124156,-15.10247 -43.124156,-15.10247 -5.822663,-14.79511 -14.212213,-18.72917 -14.212213,-18.72917 -11.61353,-7.94443 0.875413,-7.78122 0.875413,-7.78122 12.853521,0.90297 19.621544,13.19055 19.621544,13.19055 11.416403,19.56855 29.94421,13.91122 37.248503,10.64061 1.148847,-8.27297 4.466092,-13.9197 8.126712,-17.11612 -28.430781,-3.2367 -58.317761,-14.21222 -58.317761,-63.25866 0,-13.97481 5.00024,-25.393332 13.188425,-34.357306 -1.329017,-3.223979 -5.710321,-16.242832 1.239991,-33.87403 0,0 10.748715,-3.440183 35.209406,13.120595 10.210329,-2.836083 21.160409,-4.258364 32.038419,-4.307116 10.87801,0.04875 21.83657,1.471033 32.06597,4.307116 24.43102,-16.560778 35.1649,-13.120595 35.1649,-13.120595 6.96727,17.631198 2.58384,30.650051 1.25483,33.87403 8.20726,8.963974 13.17358,20.382496 13.17358,34.357306 0,49.16302 -29.94421,59.98805 -58.44706,63.15691 4.59115,3.97222 8.68206,11.76191 8.68206,23.70398 0,17.12673 -0.14837,30.91077 -0.14837,35.12674 0,3.40627 2.30405,7.39756 8.79228,6.14061 C 219.37043,232.49951 256,184.5362 256,128.00106 256,57.306694 198.69119,0 128.00106,0 Z M 47.940559,182.34021 c -0.281912,0.63589 -1.282385,0.82666 -2.193831,0.39002 -0.928405,-0.41757 -1.449837,-1.28451 -1.148847,-1.92252 0.275553,-0.65497 1.278145,-0.83726 2.204429,-0.39849 0.930524,0.41757 1.460435,1.29298 1.138249,1.93099 z m 6.29623,5.61804 c -0.610457,0.56595 -1.803817,0.30311 -2.613521,-0.59138 -0.837259,-0.89237 -0.994113,-2.08573 -0.375177,-2.66015 0.629534,-0.56595 1.78686,-0.30099 2.626239,0.59138 0.837259,0.90297 1.000472,2.08785 0.362459,2.66015 z m 4.319452,7.1881 c -0.784268,0.54475 -2.066652,0.0339 -2.859399,-1.10434 -0.784269,-1.13825 -0.784269,-2.5033 0.01696,-3.05017 0.794866,-0.54686 2.058174,-0.0551 2.861519,1.07466 0.782149,1.15733 0.782149,2.52238 -0.01908,3.07985 z m 7.305118,8.32482 c -0.701602,0.77368 -2.195951,0.56595 -3.289687,-0.48963 -1.119172,-1.03227 -1.43076,-2.49694 -0.727038,-3.27061 0.710081,-0.77579 2.212908,-0.55747 3.315123,0.48963 1.110694,1.03015 1.449837,2.50542 0.701602,3.27061 z m 9.441156,2.81037 c -0.309468,1.00259 -1.748706,1.45832 -3.198543,1.03227 -1.447716,-0.43877 -2.395197,-1.61305 -2.102686,-2.62624 0.300989,-1.00895 1.746586,-1.48375 3.207021,-1.02803 1.445597,0.43665 2.395198,1.60245 2.094208,2.622 z m 10.744432,1.19209 c 0.03603,1.05558 -1.19336,1.93099 -2.715264,1.95007 -1.530383,0.0339 -2.768255,-0.8203 -2.785212,-1.85893 0,-1.06618 1.201838,-1.93311 2.732221,-1.95855 1.521904,-0.0297 2.768255,0.81818 2.768255,1.86741 z m 10.5552,-0.40461 c 0.18229,1.03015 -0.875413,2.08785 -2.386719,2.36976 -1.48587,0.27132 -2.861519,-0.36457 -3.050168,-1.38624 -0.184409,-1.05558 0.892371,-2.11329 2.376121,-2.38672 1.513426,-0.26284 2.867879,0.3561 3.060766,1.4032 z"
             fill="#161614"
             id="path128" />
        </g>
      </g>
      <rect
         id="rect164"
         width="41.653637"
         height="9.8232832"
         x="6.8520942"
         y="43.592186"
         style="fill:none;stroke:#0000ff;stroke-width:0.627876;stroke-linecap:round;stroke-linejoin:round;stroke-miterlimit:4;stroke-dasharray:none" />
    </g>
    <g
       id="g1015"
       transform="translate(9.5049357,-4.0782113)">
      <g
         id="g1023"
         transform="translate(34.458615,-5.0782456)">
        <g
           id="g1011"
           transform="translate(2.71004,11.40627)">
          <text
             xml:space="preserve"
             style="font-style:normal;font-weight:normal;font-size:5.64444px;line-height:1.25;font-family:sans-serif;fill:#000000;fill-opacity:1;stroke:none;stroke-width:0.264583"
             x="11.551158"
             y="38.654739"
             id="text1005"><tspan
               sodipodi:role="line"
               id="tspan1003"
               x="11.551158"
               y="38.654739"
               style="font-size:5.64444px;stroke-width:0.264583">private repo</tspan></text>
          <g
             id="g1009"
             transform="matrix(0.01970621,0,0,0.01970621,5.5865472,34.637427)">
            <path
               d="M 128.00106,0 C 57.317293,0 0,57.306694 0,128.00106 c 0,56.55422 36.6762,104.53448 87.534937,121.45984 6.397085,1.18488 8.745651,-2.77674 8.745651,-6.15757 0,-3.05229 -0.1187,-13.13543 -0.173811,-23.83115 -35.610019,7.74305 -43.124156,-15.10247 -43.124156,-15.10247 -5.822663,-14.79511 -14.212213,-18.72917 -14.212213,-18.72917 -11.61353,-7.94443 0.875413,-7.78122 0.875413,-7.78122 12.853521,0.90297 19.621544,13.19055 19.621544,13.19055 11.416403,19.56855 29.94421,13.91122 37.248503,10.64061 1.148847,-8.27297 4.466092,-13.9197 8.126712,-17.11612 -28.430781,-3.2367 -58.317761,-14.21222 -58.317761,-63.25866 0,-13.97481 5.00024,-25.393332 13.188425,-34.357306 -1.329017,-3.223979 -5.710321,-16.242832 1.239991,-33.87403 0,0 10.748715,-3.440183 35.209406,13.120595 10.210329,-2.836083 21.160409,-4.258364 32.038419,-4.307116 10.87801,0.04875 21.83657,1.471033 32.06597,4.307116 24.43102,-16.560778 35.1649,-13.120595 35.1649,-13.120595 6.96727,17.631198 2.58384,30.650051 1.25483,33.87403 8.20726,8.963974 13.17358,20.382496 13.17358,34.357306 0,49.16302 -29.94421,59.98805 -58.44706,63.15691 4.59115,3.97222 8.68206,11.76191 8.68206,23.70398 0,17.12673 -0.14837,30.91077 -0.14837,35.12674 0,3.40627 2.30405,7.39756 8.79228,6.14061 C 219.37043,232.49951 256,184.5362 256,128.00106 256,57.306694 198.69119,0 128.00106,0 Z M 47.940559,182.34021 c -0.281912,0.63589 -1.282385,0.82666 -2.193831,0.39002 -0.928405,-0.41757 -1.449837,-1.28451 -1.148847,-1.92252 0.275553,-0.65497 1.278145,-0.83726 2.204429,-0.39849 0.930524,0.41757 1.460435,1.29298 1.138249,1.93099 z m 6.29623,5.61804 c -0.610457,0.56595 -1.803817,0.30311 -2.613521,-0.59138 -0.837259,-0.89237 -0.994113,-2.08573 -0.375177,-2.66015 0.629534,-0.56595 1.78686,-0.30099 2.626239,0.59138 0.837259,0.90297 1.000472,2.08785 0.362459,2.66015 z m 4.319452,7.1881 c -0.784268,0.54475 -2.066652,0.0339 -2.859399,-1.10434 -0.784269,-1.13825 -0.784269,-2.5033 0.01696,-3.05017 0.794866,-0.54686 2.058174,-0.0551 2.861519,1.07466 0.782149,1.15733 0.782149,2.52238 -0.01908,3.07985 z m 7.305118,8.32482 c -0.701602,0.77368 -2.195951,0.56595 -3.289687,-0.48963 -1.119172,-1.03227 -1.43076,-2.49694 -0.727038,-3.27061 0.710081,-0.77579 2.212908,-0.55747 3.315123,0.48963 1.110694,1.03015 1.449837,2.50542 0.701602,3.27061 z m 9.441156,2.81037 c -0.309468,1.00259 -1.748706,1.45832 -3.198543,1.03227 -1.447716,-0.43877 -2.395197,-1.61305 -2.102686,-2.62624 0.300989,-1.00895 1.746586,-1.48375 3.207021,-1.02803 1.445597,0.43665 2.395198,1.60245 2.094208,2.622 z m 10.744432,1.19209 c 0.03603,1.05558 -1.19336,1.93099 -2.715264,1.95007 -1.530383,0.0339 -2.768255,-0.8203 -2.785212,-1.85893 0,-1.06618 1.201838,-1.93311 2.732221,-1.95855 1.521904,-0.0297 2.768255,0.81818 2.768255,1.86741 z m 10.5552,-0.40461 c 0.18229,1.03015 -0.875413,2.08785 -2.386719,2.36976 -1.48587,0.27132 -2.861519,-0.36457 -3.050168,-1.38624 -0.184409,-1.05558 0.892371,-2.11329 2.376121,-2.38672 1.513426,-0.26284 2.867879,0.3561 3.060766,1.4032 z"
               fill="#161614"
               id="path1007" />
          </g>
        </g>
        <rect
           id="rect1013"
           width="43.776493"
           height="9.8079834"
           x="6.8597441"
           y="43.599838"
           style="fill:none;stroke:#0000ff;stroke-width:0.643175;stroke-linecap:round;stroke-linejoin:round;stroke-miterlimit:4;stroke-dasharray:none" />
      </g>
    </g>
    <g
       id="g1272"
       transform="translate(-1.2688696,-10.673236)">
      <g
         id="g1254"
         transform="translate(-4.3824974,10.873054)">
        <text
           xml:space="preserve"
           style="font-style:normal;font-weight:normal;font-size:5.64444px;line-height:1.25;font-family:sans-serif;fill:#000000;fill-opacity:1;stroke:none;stroke-width:0.264583"
           x="126.27378"
           y="41.378811"
           id="text32"><tspan
             sodipodi:role="line"
             id="tspan30"
             x="126.27378"
             y="41.378811"
             style="font-size:5.64444px;stroke-width:0.264583">official server</tspan></text>
        <g
           id="g3398"
           transform="matrix(0.02309818,0,0,0.02309818,89.807244,35.463602)">
          <g
             id="g3122"
             transform="translate(1285.8501,-737.48576)">
            <path
               inkscape:connector-curvature="0"
               id="path3240"
               style="font-style:normal;font-weight:bold;font-size:67.2026px;line-height:125%;font-family:Sans;-inkscape-font-specification:'Sans Bold';letter-spacing:0px;word-spacing:0px;fill:#333333;fill-opacity:1;stroke:none"
               d="m 114.29864,1016.2686 c -3.15017,1.5313 -6.4206,2.6798 -9.81131,3.4454 -3.39079,0.7657 -6.89092,1.1485 -10.500399,1.1485 -8.159708,0 -14.62401,-2.2751 -19.392927,-6.8253 -4.768937,-4.572 -7.153401,-10.7629 -7.153397,-18.57256 -4e-6,-7.89714 2.428211,-14.10987 7.284652,-18.63821 4.85642,-4.52825 11.506666,-6.79239 19.95076,-6.79244 3.259466,5e-5 6.376771,0.30631 9.351921,0.91878 2.99694,0.61258 5.81892,1.52042 8.46595,2.72354 v 10.13945 c -2.73453,-1.55314 -5.45807,-2.71256 -8.17063,-3.47825 -2.69076,-0.76562 -5.392426,-1.14844 -8.104994,-1.14849 -5.031469,5e-5 -8.914426,1.41104 -11.648882,4.23298 -2.712621,2.80014 -4.068921,6.81435 -4.068905,12.04264 -1.6e-5,5.18456 1.312533,9.18786 3.93765,12.00986 2.625077,2.822 6.354903,4.233 11.189489,4.233 1.312517,0 2.526625,-0.077 3.642326,-0.2297 1.137506,-0.175 2.154736,-0.4376 3.051676,-0.7876 v -9.516 h -7.711228 v -8.46591 h 19.688248 v 23.56031" />
            <path
               inkscape:connector-curvature="0"
               id="path3242"
               style="font-style:normal;font-weight:bold;font-size:67.2026px;line-height:125%;font-family:Sans;-inkscape-font-specification:'Sans Bold';letter-spacing:0px;word-spacing:0px;fill:#333333;fill-opacity:1;stroke:none"
               d="m 124.47091,1005.6041 v -22.44461 h 11.81295 v 3.67514 c -2e-5,1.99073 -0.011,4.49551 -0.0328,7.51435 -0.0219,2.99701 -0.0328,4.99865 -0.0328,6.00492 -2e-5,2.9532 0.0765,5.0861 0.22969,6.3987 0.15311,1.2907 0.41563,2.2313 0.78753,2.822 0.48125,0.7656 1.10471,1.3563 1.87039,1.7719 0.78751,0.4156 1.68441,0.6235 2.69072,0.6235 2.45007,0 4.37514,-0.9407 5.77522,-2.822 1.40003,-1.8813 2.10005,-4.4955 2.10008,-7.8425 v -18.14601 h 11.74732 v 36.75141 h -11.74732 v -5.3158 c -1.77197,2.1438 -3.65329,3.7298 -5.64396,4.758 -1.96885,1.0062 -4.14549,1.5094 -6.52994,1.5094 -4.24392,0 -7.48154,-1.3016 -9.71287,-3.9048 -2.20946,-2.6033 -3.31419,-6.3878 -3.31419,-11.3536" />
            <path
               inkscape:connector-curvature="0"
               id="path3244"
               style="font-style:normal;font-weight:bold;font-size:67.2026px;line-height:125%;font-family:Sans;-inkscape-font-specification:'Sans Bold';letter-spacing:0px;word-spacing:0px;fill:#333333;fill-opacity:1;stroke:none"
               d="m 172.77274,983.15949 h 11.74732 v 36.75141 h -11.74732 v -36.75141 m 0,-14.3068 h 11.74732 v 9.58162 h -11.74732 v -9.58162" />
            <path
               inkscape:connector-curvature="0"
               id="path3246"
               style="font-style:normal;font-weight:bold;font-size:67.2026px;line-height:125%;font-family:Sans;-inkscape-font-specification:'Sans Bold';letter-spacing:0px;word-spacing:0px;fill:#333333;fill-opacity:1;stroke:none"
               d="m 205.15991,1001.1086 -13.25675,-17.94911 h 12.43641 l 7.51435,10.89416 7.61279,-10.89416 h 12.43641 l -13.25676,17.88351 13.91303,18.8679 h -12.43641 l -8.26906,-11.6161 -8.17063,11.6161 h -12.43641 l 13.91303,-18.8023" />
          </g>
          <path
             inkscape:connector-curvature="0"
             style="font-style:normal;font-weight:bold;font-size:144px;line-height:125%;font-family:Sans;-inkscape-font-specification:'Sans Bold';letter-spacing:0px;word-spacing:0px;fill:#ffcc00;fill-opacity:1;stroke:none"
             d="m 1557.9367,46.602435 c -2.6825,4.90263 -5.4059,8.89401 -8.1809,12.03897 -2.6825,3.05258 -5.6406,5.49427 -8.8781,7.34422 -3.1451,1.75757 -6.7135,3.02514 -10.691,3.76506 -3.885,0.64751 -8.3459,0.97629 -13.4334,0.9761 -3.7529,0 -7.1256,-0.1922 -10.0867,-0.55773 -0.012,0 -0.034,0 -0.047,0 -0.3754,-0.0273 -1.1508,-0.15334 -1.9523,-0.27891 -0.8442,-0.13218 -1.7071,-0.25955 -3.0678,-0.5113 -24.9421,-4.61489 -33.2141,12.7003 -35.0013,17.47744 -0.2797,0.74767 -0.4183,1.20845 -0.4183,1.20845 l -30.3066,84.505085 -18.593,31.60821 h 37.1395 c 15.2535,-33.96261 29.9183,-104.875515 45.5993,-111.139545 3.3988,0.47537 7.6118,0.69713 12.6897,0.69713 6.6601,0 12.6232,-0.79843 17.8957,-2.46349 5.2726,-1.66502 10.0151,-4.24757 14.2702,-7.76263 4.255,-3.60748 8.1051,-8.20868 11.5276,-13.75881 3.515,-5.54998 6.8486,-12.21732 9.9937,-19.98743 l -8.4597,-3.16082 z"
             id="path3143" />
          <path
             style="font-style:normal;font-weight:bold;font-size:144px;line-height:125%;font-family:Sans;-inkscape-font-specification:'Sans Bold';letter-spacing:0px;word-spacing:0px;fill:url(#linearGradient3936);fill-opacity:1;stroke:none"
             d="m 1557.9358,46.605905 c -2.6826,4.90263 -5.4057,8.8885 -8.1808,12.03346 -2.6824,3.05259 -5.6417,5.49543 -8.8792,7.34538 -0.7789,0.43527 -1.5819,0.83524 -2.4125,1.20983 -0.01,0.003 -0.014,0.0109 -0.022,0.0144 -1.0455,0.73525 -2.3902,1.36643 -4.2128,1.80033 -21.0208,5.00504 -35.3388,23.73821 -36.6837,25.5504 0.6098,-0.50134 1.2236,-0.91065 1.8364,-1.22422 0.092,-0.0488 0.1814,-0.093 0.2736,-0.13683 0.015,-0.007 0.029,-0.0148 0.043,-0.0216 0.1068,-0.0498 0.2172,-0.0941 0.3241,-0.13682 3.3988,0.47537 7.6109,0.69853 12.6888,0.69853 6.6601,0 12.6228,-0.805 17.8954,-2.47007 5.2725,-1.66501 10.0108,-4.2408 14.2658,-7.75586 4.2551,-3.60747 8.1069,-8.21164 11.5294,-13.76177 3.515,-5.55 6.8504,-12.22084 9.9955,-19.99096 l -8.4616,-3.1542 z"
             id="path3145"
             inkscape:connector-curvature="0" />
          <path
             inkscape:connector-curvature="0"
             style="font-style:normal;font-weight:bold;font-size:144px;line-height:125%;font-family:Sans;-inkscape-font-specification:'Sans Bold';letter-spacing:0px;word-spacing:0px;fill:#ffcc00;fill-opacity:1;stroke:none"
             d="m 1313.7642,46.602455 c 2.6826,4.90263 5.4059,8.89399 8.1809,12.03895 2.6825,3.05258 5.6407,5.49427 8.8782,7.34422 3.145,1.75757 6.7134,3.02514 10.6909,3.76506 3.8851,0.6477 8.3459,0.97629 13.4334,0.9761 3.7529,0 7.1256,-0.1922 10.0867,-0.55773 0.012,0 0.035,0 0.047,0 0.3754,-0.0269 1.1508,-0.15333 1.9523,-0.27891 0.8442,-0.13218 1.7071,-0.25955 3.0678,-0.5113 24.9421,-4.61489 33.2141,12.7003 35.0013,17.47744 0.2797,0.74767 0.4183,1.20845 0.4183,1.20845 l 30.3066,84.505085 18.593,31.60821 h -37.1395 c -15.2535,-33.96261 -29.9183,-104.875515 -45.5993,-111.139545 -3.3988,0.47537 -7.6118,0.69713 -12.6897,0.69713 -6.6601,0 -12.6232,-0.79843 -17.8957,-2.46349 -5.2726,-1.66502 -10.0151,-4.24757 -14.2702,-7.76263 -4.255,-3.60748 -8.105,-8.20867 -11.5276,-13.75881 -3.515,-5.54993 -6.8486,-12.21728 -9.9937,-19.98743 l 8.4598,-3.1608 z"
             id="path3147" />
          <path
             sodipodi:nodetypes="ccccccccsscccccccccccc"
             id="path3149"
             d="m 1313.7627,46.601235 c 2.6826,4.90262 5.4059,8.89399 8.1809,12.03894 2.6825,3.05259 5.6407,5.49427 8.8781,7.34422 3.1451,1.75757 6.7135,3.02514 10.691,3.76507 3.8851,0.64768 8.3459,0.97628 13.4334,0.97609 3.7529,0 7.1256,-0.19221 10.0867,-0.55772 0.012,0 0.035,0 0.047,0 0.3754,-0.027 1.1508,-0.15335 1.9523,-0.27892 0.8442,-0.13218 1.7071,-0.25955 3.0678,-0.5113 24.9421,-4.61489 33.2141,12.70029 35.0013,17.47744 0.2797,0.74767 0.4183,1.20845 0.4183,1.20845 l 30.3066,84.505095 15.6181,31.60819 h -34.1646 c -15.2535,-33.9626 -29.9183,-104.875505 -45.5993,-111.139535 -3.3988,0.47537 -7.6118,0.69713 -12.6897,0.69713 -6.6601,0 -12.6232,-0.79843 -17.8957,-2.46349 -5.2726,-1.66502 -10.0151,-4.24758 -14.2701,-7.76263 -4.2551,-3.60748 -8.1051,-8.20867 -11.5277,-13.7588 -3.515,-5.54995 -6.8486,-12.21728 -9.9937,-19.98743 l 8.4598,-3.1608 z"
             style="font-style:normal;font-weight:bold;font-size:144px;line-height:125%;font-family:Sans;-inkscape-font-specification:'Sans Bold';letter-spacing:0px;word-spacing:0px;fill:url(#linearGradient3932);fill-opacity:1;stroke:none"
             inkscape:connector-curvature="0" />
          <path
             inkscape:connector-curvature="0"
             id="path3151"
             style="font-style:normal;font-weight:bold;font-size:144px;line-height:125%;font-family:Sans;-inkscape-font-specification:'Sans Bold';letter-spacing:0px;word-spacing:0px;fill:url(#linearGradient3929);fill-opacity:1;stroke:none"
             d="m 1435.8193,172.5566 -18.52,31.62143 h 37.1209"
             sodipodi:nodetypes="ccc" />
          <path
             style="font-style:normal;font-weight:bold;font-size:144px;line-height:125%;font-family:Sans;-inkscape-font-specification:'Sans Bold';letter-spacing:0px;word-spacing:0px;fill:url(#linearGradient3926);fill-opacity:1;stroke:none"
             d="m 1313.7667,46.605905 -8.4616,3.1542 c 0.9829,2.42817 1.9835,4.75137 3.003,6.96371 0.2039,0.44246 0.4068,0.87683 0.6121,1.31064 8e-4,0.002 -8e-4,0.006 0,0.007 0.2044,0.4318 0.4135,0.85862 0.6193,1.28184 0.069,0.14106 0.1401,0.27758 0.2089,0.41768 0.3452,0.70349 0.6877,1.40177 1.037,2.08119 0,0.003 0.01,0.004 0.01,0.007 0.2082,0.40484 0.4169,0.80634 0.6265,1.20263 0.8454,1.59852 1.7025,3.12828 2.5709,4.58726 0.2168,0.36432 0.4298,0.7174 0.6481,1.073 0.085,0.13784 0.1672,0.27395 0.252,0.41048 0.1351,0.21746 0.2749,0.43399 0.4105,0.64812 0.2139,0.34687 0.4237,0.69034 0.6409,1.0298 0.3462,0.54084 0.7041,1.06956 1.0586,1.59149 0.09,0.13178 0.1764,0.26551 0.2665,0.39607 0.225,0.32622 0.4486,0.64634 0.6769,0.96499 0.4544,0.6341 0.9152,1.25393 1.3827,1.85795 0.2337,0.302 0.4687,0.59851 0.7057,0.89296 0.474,0.58892 0.9532,1.16257 1.4403,1.72113 0.3692,0.42348 0.7467,0.83988 1.1234,1.24584 0.119,0.12822 0.2403,0.2552 0.36,0.38166 0.5012,0.52939 1.0055,1.04257 1.5195,1.54109 0.2564,0.24866 0.511,0.49359 0.7706,0.73454 0.2608,0.24217 0.5209,0.47857 0.7849,0.71294 0.2628,0.23322 0.5262,0.45866 0.7922,0.68413 0.7978,0.65907 1.6161,1.28595 2.4484,1.87955 2.2197,1.58292 4.563,2.93443 7.0357,4.05436 0.3091,0.14 0.6159,0.27768 0.929,0.41048 0.6283,0.26652 1.2637,0.51855 1.9084,0.75614 0.3213,0.11842 0.6396,0.22723 0.965,0.33846 0.3254,0.11123 0.657,0.22 0.9866,0.32406 0.3295,0.10407 0.6588,0.20515 0.9937,0.30246 0.6699,0.19463 1.3538,0.37949 2.0452,0.5473 0.3458,0.0839 0.6931,0.16039 1.0442,0.23765 0.3512,0.0773 0.7021,0.15261 1.0586,0.22324 0.3588,0.0711 0.7159,0.13718 1.0802,0.20164 0.7239,0.12808 1.458,0.24373 2.2036,0.34566 1.1184,0.15292 2.2607,0.27964 3.4279,0.37447 0.7781,0.0633 1.5694,0.1135 2.3692,0.15123 0.7999,0.0377 1.6125,0.0595 2.4341,0.072 0.4108,0.006 0.8224,0.007 1.2386,0.007 0.6348,0 1.2574,-2.1e-4 1.8652,-0.007 1.2156,-0.014 2.3763,-0.0437 3.4854,-0.0864 0.5521,-0.0213 1.0943,-0.0435 1.6203,-0.072 0.5282,-0.0287 1.0462,-0.0646 1.5483,-0.10083 1.5062,-0.10864 2.895,-0.24661 4.1696,-0.42487 0.1069,0.0427 0.2173,0.087 0.3241,0.13682 0.015,0.006 0.028,0.0148 0.043,0.0216 0.092,0.0439 0.1815,0.088 0.2736,0.13682 0.6131,0.31376 1.2262,0.72249 1.8364,1.22423 -1.3421,-1.80851 -15.6604,-20.54497 -36.6837,-25.5504 -1.8226,-0.43396 -3.1673,-1.06505 -4.2128,-1.80034 -0.01,-0.003 -0.014,-0.0108 -0.022,-0.0144 -0.8287,-0.37374 -1.6352,-0.77569 -2.4125,-1.20983 0,-8e-4 -0.01,7.9e-4 -0.01,0 -0.2005,-0.11459 -0.3993,-0.23372 -0.5977,-0.35287 0,-8e-4 -0.01,8e-4 -0.01,0 -0.2001,-0.12025 -0.3925,-0.24238 -0.5905,-0.36726 -0.3976,-0.25081 -0.7922,-0.50819 -1.181,-0.77775 -0.1936,-0.13419 -0.3847,-0.27162 -0.5761,-0.41048 -0.3856,-0.27966 -0.7611,-0.56553 -1.1378,-0.86416 -0.1871,-0.14821 -0.3696,-0.29358 -0.5545,-0.44649 -0.1864,-0.15403 -0.3704,-0.30928 -0.5545,-0.46808 -0.1828,-0.15761 -0.3595,-0.32017 -0.5401,-0.4825 -0.9031,-0.81159 -1.7795,-1.67679 -2.6285,-2.60688 -0.1699,-0.18602 -0.3437,-0.37813 -0.5113,-0.56891 -0.6171,-0.6993 -1.2315,-1.4415 -1.8436,-2.22522 -0.076,-0.0976 -0.1471,-0.19638 -0.2232,-0.29525 -0.1719,-0.22327 -0.347,-0.44692 -0.5185,-0.67693 -0.8574,-1.15011 -1.7082,-2.38737 -2.5565,-3.70871 -0.3393,-0.52854 -0.6774,-1.07112 -1.0154,-1.62751 -0.169,-0.27819 -0.3354,-0.55736 -0.5041,-0.84255 -0.5043,-0.85289 -1.0109,-1.74117 -1.5123,-2.6573 z"
             id="path3154"
             inkscape:connector-curvature="0" />
        </g>
      </g>
      <rect
         id="rect1217"
         width="46.696056"
         height="9.7875738"
         x="114.52048"
         y="45.253815"
         style="fill:none;stroke:#0000ff;stroke-width:0.663585;stroke-linecap:round;stroke-linejoin:round;stroke-miterlimit:4;stroke-dasharray:none" />
    </g>
    <g
       id="g1306"
       transform="translate(49.047719,-10.920172)">
      <g
         id="g1302"
         transform="translate(-4.3824974,10.873054)">
        <g
           id="g1330"
           transform="translate(-0.67386054,-0.27190473)">
          <text
             xml:space="preserve"
             style="font-style:normal;font-weight:normal;font-size:5.64444px;line-height:1.25;font-family:sans-serif;fill:#000000;fill-opacity:1;stroke:none;stroke-width:0.264583"
             x="126.27378"
             y="41.103634"
             id="text1276"><tspan
               sodipodi:role="line"
               id="tspan1274"
               x="126.27378"
               y="41.103634"
               style="font-size:5.64444px;stroke-width:0.264583">private server</tspan></text>
          <g
             id="g1300"
             transform="matrix(0.02309818,0,0,0.02309818,89.807244,35.735507)">
            <g
               id="g1286"
               transform="translate(1285.8501,-737.48576)">
              <path
                 inkscape:connector-curvature="0"
                 id="path1278"
                 style="font-style:normal;font-weight:bold;font-size:67.2026px;line-height:125%;font-family:Sans;-inkscape-font-specification:'Sans Bold';letter-spacing:0px;word-spacing:0px;fill:#333333;fill-opacity:1;stroke:none"
                 d="m 114.29864,1016.2686 c -3.15017,1.5313 -6.4206,2.6798 -9.81131,3.4454 -3.39079,0.7657 -6.89092,1.1485 -10.500399,1.1485 -8.159708,0 -14.62401,-2.2751 -19.392927,-6.8253 -4.768937,-4.572 -7.153401,-10.7629 -7.153397,-18.57256 -4e-6,-7.89714 2.428211,-14.10987 7.284652,-18.63821 4.85642,-4.52825 11.506666,-6.79239 19.95076,-6.79244 3.259466,5e-5 6.376771,0.30631 9.351921,0.91878 2.99694,0.61258 5.81892,1.52042 8.46595,2.72354 v 10.13945 c -2.73453,-1.55314 -5.45807,-2.71256 -8.17063,-3.47825 -2.69076,-0.76562 -5.392426,-1.14844 -8.104994,-1.14849 -5.031469,5e-5 -8.914426,1.41104 -11.648882,4.23298 -2.712621,2.80014 -4.068921,6.81435 -4.068905,12.04264 -1.6e-5,5.18456 1.312533,9.18786 3.93765,12.00986 2.625077,2.822 6.354903,4.233 11.189489,4.233 1.312517,0 2.526625,-0.077 3.642326,-0.2297 1.137506,-0.175 2.154736,-0.4376 3.051676,-0.7876 v -9.516 h -7.711228 v -8.46591 h 19.688248 v 23.56031" />
              <path
                 inkscape:connector-curvature="0"
                 id="path1280"
                 style="font-style:normal;font-weight:bold;font-size:67.2026px;line-height:125%;font-family:Sans;-inkscape-font-specification:'Sans Bold';letter-spacing:0px;word-spacing:0px;fill:#333333;fill-opacity:1;stroke:none"
                 d="m 124.47091,1005.6041 v -22.44461 h 11.81295 v 3.67514 c -2e-5,1.99073 -0.011,4.49551 -0.0328,7.51435 -0.0219,2.99701 -0.0328,4.99865 -0.0328,6.00492 -2e-5,2.9532 0.0765,5.0861 0.22969,6.3987 0.15311,1.2907 0.41563,2.2313 0.78753,2.822 0.48125,0.7656 1.10471,1.3563 1.87039,1.7719 0.78751,0.4156 1.68441,0.6235 2.69072,0.6235 2.45007,0 4.37514,-0.9407 5.77522,-2.822 1.40003,-1.8813 2.10005,-4.4955 2.10008,-7.8425 v -18.14601 h 11.74732 v 36.75141 h -11.74732 v -5.3158 c -1.77197,2.1438 -3.65329,3.7298 -5.64396,4.758 -1.96885,1.0062 -4.14549,1.5094 -6.52994,1.5094 -4.24392,0 -7.48154,-1.3016 -9.71287,-3.9048 -2.20946,-2.6033 -3.31419,-6.3878 -3.31419,-11.3536" />
              <path
                 inkscape:connector-curvature="0"
                 id="path1282"
                 style="font-style:normal;font-weight:bold;font-size:67.2026px;line-height:125%;font-family:Sans;-inkscape-font-specification:'Sans Bold';letter-spacing:0px;word-spacing:0px;fill:#333333;fill-opacity:1;stroke:none"
                 d="m 172.77274,983.15949 h 11.74732 v 36.75141 h -11.74732 v -36.75141 m 0,-14.3068 h 11.74732 v 9.58162 h -11.74732 v -9.58162" />
              <path
                 inkscape:connector-curvature="0"
                 id="path1284"
                 style="font-style:normal;font-weight:bold;font-size:67.2026px;line-height:125%;font-family:Sans;-inkscape-font-specification:'Sans Bold';letter-spacing:0px;word-spacing:0px;fill:#333333;fill-opacity:1;stroke:none"
                 d="m 205.15991,1001.1086 -13.25675,-17.94911 h 12.43641 l 7.51435,10.89416 7.61279,-10.89416 h 12.43641 l -13.25676,17.88351 13.91303,18.8679 h -12.43641 l -8.26906,-11.6161 -8.17063,11.6161 h -12.43641 l 13.91303,-18.8023" />
            </g>
            <path
               inkscape:connector-curvature="0"
               style="font-style:normal;font-weight:bold;font-size:144px;line-height:125%;font-family:Sans;-inkscape-font-specification:'Sans Bold';letter-spacing:0px;word-spacing:0px;fill:#ffcc00;fill-opacity:1;stroke:none"
               d="m 1557.9367,46.602435 c -2.6825,4.90263 -5.4059,8.89401 -8.1809,12.03897 -2.6825,3.05258 -5.6406,5.49427 -8.8781,7.34422 -3.1451,1.75757 -6.7135,3.02514 -10.691,3.76506 -3.885,0.64751 -8.3459,0.97629 -13.4334,0.9761 -3.7529,0 -7.1256,-0.1922 -10.0867,-0.55773 -0.012,0 -0.034,0 -0.047,0 -0.3754,-0.0273 -1.1508,-0.15334 -1.9523,-0.27891 -0.8442,-0.13218 -1.7071,-0.25955 -3.0678,-0.5113 -24.9421,-4.61489 -33.2141,12.7003 -35.0013,17.47744 -0.2797,0.74767 -0.4183,1.20845 -0.4183,1.20845 l -30.3066,84.505085 -18.593,31.60821 h 37.1395 c 15.2535,-33.96261 29.9183,-104.875515 45.5993,-111.139545 3.3988,0.47537 7.6118,0.69713 12.6897,0.69713 6.6601,0 12.6232,-0.79843 17.8957,-2.46349 5.2726,-1.66502 10.0151,-4.24757 14.2702,-7.76263 4.255,-3.60748 8.1051,-8.20868 11.5276,-13.75881 3.515,-5.54998 6.8486,-12.21732 9.9937,-19.98743 l -8.4597,-3.16082 z"
               id="path1288" />
            <path
               style="font-style:normal;font-weight:bold;font-size:144px;line-height:125%;font-family:Sans;-inkscape-font-specification:'Sans Bold';letter-spacing:0px;word-spacing:0px;fill:url(#linearGradient1308);fill-opacity:1;stroke:none"
               d="m 1557.9358,46.605905 c -2.6826,4.90263 -5.4057,8.8885 -8.1808,12.03346 -2.6824,3.05259 -5.6417,5.49543 -8.8792,7.34538 -0.7789,0.43527 -1.5819,0.83524 -2.4125,1.20983 -0.01,0.003 -0.014,0.0109 -0.022,0.0144 -1.0455,0.73525 -2.3902,1.36643 -4.2128,1.80033 -21.0208,5.00504 -35.3388,23.73821 -36.6837,25.5504 0.6098,-0.50134 1.2236,-0.91065 1.8364,-1.22422 0.092,-0.0488 0.1814,-0.093 0.2736,-0.13683 0.015,-0.007 0.029,-0.0148 0.043,-0.0216 0.1068,-0.0498 0.2172,-0.0941 0.3241,-0.13682 3.3988,0.47537 7.6109,0.69853 12.6888,0.69853 6.6601,0 12.6228,-0.805 17.8954,-2.47007 5.2725,-1.66501 10.0108,-4.2408 14.2658,-7.75586 4.2551,-3.60747 8.1069,-8.21164 11.5294,-13.76177 3.515,-5.55 6.8504,-12.22084 9.9955,-19.99096 l -8.4616,-3.1542 z"
               id="path1290"
               inkscape:connector-curvature="0" />
            <path
               inkscape:connector-curvature="0"
               style="font-style:normal;font-weight:bold;font-size:144px;line-height:125%;font-family:Sans;-inkscape-font-specification:'Sans Bold';letter-spacing:0px;word-spacing:0px;fill:#ffcc00;fill-opacity:1;stroke:none"
               d="m 1313.7642,46.602455 c 2.6826,4.90263 5.4059,8.89399 8.1809,12.03895 2.6825,3.05258 5.6407,5.49427 8.8782,7.34422 3.145,1.75757 6.7134,3.02514 10.6909,3.76506 3.8851,0.6477 8.3459,0.97629 13.4334,0.9761 3.7529,0 7.1256,-0.1922 10.0867,-0.55773 0.012,0 0.035,0 0.047,0 0.3754,-0.0269 1.1508,-0.15333 1.9523,-0.27891 0.8442,-0.13218 1.7071,-0.25955 3.0678,-0.5113 24.9421,-4.61489 33.2141,12.7003 35.0013,17.47744 0.2797,0.74767 0.4183,1.20845 0.4183,1.20845 l 30.3066,84.505085 18.593,31.60821 h -37.1395 c -15.2535,-33.96261 -29.9183,-104.875515 -45.5993,-111.139545 -3.3988,0.47537 -7.6118,0.69713 -12.6897,0.69713 -6.6601,0 -12.6232,-0.79843 -17.8957,-2.46349 -5.2726,-1.66502 -10.0151,-4.24757 -14.2702,-7.76263 -4.255,-3.60748 -8.105,-8.20867 -11.5276,-13.75881 -3.515,-5.54993 -6.8486,-12.21728 -9.9937,-19.98743 l 8.4598,-3.1608 z"
               id="path1292" />
            <path
               sodipodi:nodetypes="ccccccccsscccccccccccc"
               id="path1294"
               d="m 1313.7627,46.601235 c 2.6826,4.90262 5.4059,8.89399 8.1809,12.03894 2.6825,3.05259 5.6407,5.49427 8.8781,7.34422 3.1451,1.75757 6.7135,3.02514 10.691,3.76507 3.8851,0.64768 8.3459,0.97628 13.4334,0.97609 3.7529,0 7.1256,-0.19221 10.0867,-0.55772 0.012,0 0.035,0 0.047,0 0.3754,-0.027 1.1508,-0.15335 1.9523,-0.27892 0.8442,-0.13218 1.7071,-0.25955 3.0678,-0.5113 24.9421,-4.61489 33.2141,12.70029 35.0013,17.47744 0.2797,0.74767 0.4183,1.20845 0.4183,1.20845 l 30.3066,84.505095 15.6181,31.60819 h -34.1646 c -15.2535,-33.9626 -29.9183,-104.875505 -45.5993,-111.139535 -3.3988,0.47537 -7.6118,0.69713 -12.6897,0.69713 -6.6601,0 -12.6232,-0.79843 -17.8957,-2.46349 -5.2726,-1.66502 -10.0151,-4.24758 -14.2701,-7.76263 -4.2551,-3.60748 -8.1051,-8.20867 -11.5277,-13.7588 -3.515,-5.54995 -6.8486,-12.21728 -9.9937,-19.98743 l 8.4598,-3.1608 z"
               style="font-style:normal;font-weight:bold;font-size:144px;line-height:125%;font-family:Sans;-inkscape-font-specification:'Sans Bold';letter-spacing:0px;word-spacing:0px;fill:url(#linearGradient1310);fill-opacity:1;stroke:none"
               inkscape:connector-curvature="0" />
            <path
               inkscape:connector-curvature="0"
               id="path1296"
               style="font-style:normal;font-weight:bold;font-size:144px;line-height:125%;font-family:Sans;-inkscape-font-specification:'Sans Bold';letter-spacing:0px;word-spacing:0px;fill:url(#linearGradient1312);fill-opacity:1;stroke:none"
               d="m 1435.8193,172.5566 -18.52,31.62143 h 37.1209"
               sodipodi:nodetypes="ccc" />
            <path
               style="font-style:normal;font-weight:bold;font-size:144px;line-height:125%;font-family:Sans;-inkscape-font-specification:'Sans Bold';letter-spacing:0px;word-spacing:0px;fill:url(#linearGradient1314);fill-opacity:1;stroke:none"
               d="m 1313.7667,46.605905 -8.4616,3.1542 c 0.9829,2.42817 1.9835,4.75137 3.003,6.96371 0.2039,0.44246 0.4068,0.87683 0.6121,1.31064 8e-4,0.002 -8e-4,0.006 0,0.007 0.2044,0.4318 0.4135,0.85862 0.6193,1.28184 0.069,0.14106 0.1401,0.27758 0.2089,0.41768 0.3452,0.70349 0.6877,1.40177 1.037,2.08119 0,0.003 0.01,0.004 0.01,0.007 0.2082,0.40484 0.4169,0.80634 0.6265,1.20263 0.8454,1.59852 1.7025,3.12828 2.5709,4.58726 0.2168,0.36432 0.4298,0.7174 0.6481,1.073 0.085,0.13784 0.1672,0.27395 0.252,0.41048 0.1351,0.21746 0.2749,0.43399 0.4105,0.64812 0.2139,0.34687 0.4237,0.69034 0.6409,1.0298 0.3462,0.54084 0.7041,1.06956 1.0586,1.59149 0.09,0.13178 0.1764,0.26551 0.2665,0.39607 0.225,0.32622 0.4486,0.64634 0.6769,0.96499 0.4544,0.6341 0.9152,1.25393 1.3827,1.85795 0.2337,0.302 0.4687,0.59851 0.7057,0.89296 0.474,0.58892 0.9532,1.16257 1.4403,1.72113 0.3692,0.42348 0.7467,0.83988 1.1234,1.24584 0.119,0.12822 0.2403,0.2552 0.36,0.38166 0.5012,0.52939 1.0055,1.04257 1.5195,1.54109 0.2564,0.24866 0.511,0.49359 0.7706,0.73454 0.2608,0.24217 0.5209,0.47857 0.7849,0.71294 0.2628,0.23322 0.5262,0.45866 0.7922,0.68413 0.7978,0.65907 1.6161,1.28595 2.4484,1.87955 2.2197,1.58292 4.563,2.93443 7.0357,4.05436 0.3091,0.14 0.6159,0.27768 0.929,0.41048 0.6283,0.26652 1.2637,0.51855 1.9084,0.75614 0.3213,0.11842 0.6396,0.22723 0.965,0.33846 0.3254,0.11123 0.657,0.22 0.9866,0.32406 0.3295,0.10407 0.6588,0.20515 0.9937,0.30246 0.6699,0.19463 1.3538,0.37949 2.0452,0.5473 0.3458,0.0839 0.6931,0.16039 1.0442,0.23765 0.3512,0.0773 0.7021,0.15261 1.0586,0.22324 0.3588,0.0711 0.7159,0.13718 1.0802,0.20164 0.7239,0.12808 1.458,0.24373 2.2036,0.34566 1.1184,0.15292 2.2607,0.27964 3.4279,0.37447 0.7781,0.0633 1.5694,0.1135 2.3692,0.15123 0.7999,0.0377 1.6125,0.0595 2.4341,0.072 0.4108,0.006 0.8224,0.007 1.2386,0.007 0.6348,0 1.2574,-2.1e-4 1.8652,-0.007 1.2156,-0.014 2.3763,-0.0437 3.4854,-0.0864 0.5521,-0.0213 1.0943,-0.0435 1.6203,-0.072 0.5282,-0.0287 1.0462,-0.0646 1.5483,-0.10083 1.5062,-0.10864 2.895,-0.24661 4.1696,-0.42487 0.1069,0.0427 0.2173,0.087 0.3241,0.13682 0.015,0.006 0.028,0.0148 0.043,0.0216 0.092,0.0439 0.1815,0.088 0.2736,0.13682 0.6131,0.31376 1.2262,0.72249 1.8364,1.22423 -1.3421,-1.80851 -15.6604,-20.54497 -36.6837,-25.5504 -1.8226,-0.43396 -3.1673,-1.06505 -4.2128,-1.80034 -0.01,-0.003 -0.014,-0.0108 -0.022,-0.0144 -0.8287,-0.37374 -1.6352,-0.77569 -2.4125,-1.20983 0,-8e-4 -0.01,7.9e-4 -0.01,0 -0.2005,-0.11459 -0.3993,-0.23372 -0.5977,-0.35287 0,-8e-4 -0.01,8e-4 -0.01,0 -0.2001,-0.12025 -0.3925,-0.24238 -0.5905,-0.36726 -0.3976,-0.25081 -0.7922,-0.50819 -1.181,-0.77775 -0.1936,-0.13419 -0.3847,-0.27162 -0.5761,-0.41048 -0.3856,-0.27966 -0.7611,-0.56553 -1.1378,-0.86416 -0.1871,-0.14821 -0.3696,-0.29358 -0.5545,-0.44649 -0.1864,-0.15403 -0.3704,-0.30928 -0.5545,-0.46808 -0.1828,-0.15761 -0.3595,-0.32017 -0.5401,-0.4825 -0.9031,-0.81159 -1.7795,-1.67679 -2.6285,-2.60688 -0.1699,-0.18602 -0.3437,-0.37813 -0.5113,-0.56891 -0.6171,-0.6993 -1.2315,-1.4415 -1.8436,-2.22522 -0.076,-0.0976 -0.1471,-0.19638 -0.2232,-0.29525 -0.1719,-0.22327 -0.347,-0.44692 -0.5185,-0.67693 -0.8574,-1.15011 -1.7082,-2.38737 -2.5565,-3.70871 -0.3393,-0.52854 -0.6774,-1.07112 -1.0154,-1.62751 -0.169,-0.27819 -0.3354,-0.55736 -0.5041,-0.84255 -0.5043,-0.85289 -1.0109,-1.74117 -1.5123,-2.6573 z"
               id="path1298"
               inkscape:connector-curvature="0" />
          </g>
        </g>
      </g>
      <rect
         id="rect1304"
         width="46.696056"
         height="9.7875738"
         x="114.52048"
         y="45.253815"
         style="fill:none;stroke:#0000ff;stroke-width:0.663585;stroke-linecap:round;stroke-linejoin:round;stroke-miterlimit:4;stroke-dasharray:none" />
    </g>
    <rect
       style="fill:none;stroke:#0000ff;stroke-width:0.587276;stroke-linecap:round;stroke-linejoin:round;stroke-miterlimit:4;stroke-dasharray:0.587276, 1.76183;stroke-dashoffset:0"
       id="rect1332"
       width="73.688354"
       height="48.169155"
       x="-15.66224"
       y="93.577286" />
    <rect
       style="fill:none;stroke:#0000ff;stroke-width:0.587276;stroke-linecap:round;stroke-linejoin:round;stroke-miterlimit:4;stroke-dasharray:0.587276, 1.76183;stroke-dashoffset:0"
       id="rect1334"
       width="73.688354"
       height="48.169155"
       x="151.75967"
       y="93.31002" />
    <rect
       style="fill:none;stroke:#0000ff;stroke-width:0.587276;stroke-linecap:round;stroke-linejoin:round;stroke-miterlimit:4;stroke-dasharray:0.587276, 1.76183;stroke-dashoffset:0"
       id="rect1336"
       width="73.688354"
       height="48.169155"
       x="68.182335"
       y="93.042747" />
    <text
       xml:space="preserve"
       style="font-style:normal;font-weight:normal;font-size:10.5833px;line-height:1.25;font-family:sans-serif;fill:#000000;fill-opacity:1;stroke:none;stroke-width:0.264583"
       x="8.526495"
       y="168.86102"
       id="text1342"><tspan
         sodipodi:role="line"
         x="8.526495"
         y="168.86102"
         style="stroke-width:0.264583"
         id="tspan1340">profiles and environment</tspan></text>
    <text
       xml:space="preserve"
       style="font-style:normal;font-weight:normal;font-size:10.5833px;line-height:1.25;font-family:sans-serif;fill:#000000;fill-opacity:1;stroke:none;stroke-width:0.264583"
       x="9.0913591"
       y="217.09465"
       id="text1348"><tspan
         sodipodi:role="line"
         x="9.0913591"
         y="217.09465"
         style="stroke-width:0.264583"
         id="tspan1346">manifest file and channel file</tspan></text>
    <g
       id="g1884"
       transform="translate(-1.8708867,6.9490077)">
      <text
         xml:space="preserve"
         style="font-style:normal;font-weight:normal;font-size:5.64444px;line-height:1.25;font-family:sans-serif;fill:#000000;fill-opacity:1;stroke:none;stroke-width:0.264583"
         x="99.614853"
         y="224.51254"
         id="text1356"><tspan
           sodipodi:role="line"
           x="99.614853"
           y="224.51254"
           style="font-size:5.64444px;stroke-width:0.264583"
           id="tspan1358">channel commits for exact</tspan><tspan
           sodipodi:role="line"
           x="99.614853"
           y="231.5681"
           style="font-size:5.64444px;stroke-width:0.264583"
           id="tspan1804"> package version</tspan></text>
      <text
         xml:space="preserve"
         style="font-style:normal;font-variant:normal;font-weight:normal;font-stretch:normal;font-size:2.11667px;line-height:1.25;font-family:monospace;-inkscape-font-specification:monospace;fill:#000000;fill-opacity:1;stroke:none;stroke-width:0.264583"
         x="99.614853"
         y="236.18462"
         id="text1404"><tspan
           sodipodi:role="line"
           id="tspan1402"
           x="99.614853"
           y="236.18462"
           style="font-style:normal;font-variant:normal;font-weight:normal;font-stretch:normal;font-size:2.11667px;font-family:monospace;-inkscape-font-specification:monospace;stroke-width:0.264583">(list (channel</tspan><tspan
           sodipodi:role="line"
           x="99.614853"
           y="238.83046"
           style="font-style:normal;font-variant:normal;font-weight:normal;font-stretch:normal;font-size:2.11667px;font-family:monospace;-inkscape-font-specification:monospace;stroke-width:0.264583"
           id="tspan1406">        (name 'nonguix)</tspan><tspan
           sodipodi:role="line"
           x="99.614853"
           y="241.47629"
           style="font-style:normal;font-variant:normal;font-weight:normal;font-stretch:normal;font-size:2.11667px;font-family:monospace;-inkscape-font-specification:monospace;stroke-width:0.264583"
           id="tspan1408">        (url &quot;https://gitlab.com/nonguix/nonguix&quot;)</tspan><tspan
           sodipodi:role="line"
           x="99.614853"
           y="244.12213"
           style="font-style:normal;font-variant:normal;font-weight:normal;font-stretch:normal;font-size:2.11667px;font-family:monospace;-inkscape-font-specification:monospace;stroke-width:0.264583"
           id="tspan1410">        (commit</tspan><tspan
           sodipodi:role="line"
           x="99.614853"
           y="246.76796"
           style="font-style:normal;font-variant:normal;font-weight:normal;font-stretch:normal;font-size:2.11667px;font-family:monospace;-inkscape-font-specification:monospace;stroke-width:0.264583"
           id="tspan1412">          &quot;51dc6fb07ea1984f2ce55a44b0ce998200fb0e5c&quot;)</tspan><tspan
           sodipodi:role="line"
           x="99.614853"
           y="249.4138"
           style="font-style:normal;font-variant:normal;font-weight:normal;font-stretch:normal;font-size:2.11667px;font-family:monospace;-inkscape-font-specification:monospace;stroke-width:0.264583"
           id="tspan1414">        (introduction</tspan><tspan
           sodipodi:role="line"
           x="99.614853"
           y="252.05965"
           style="font-style:normal;font-variant:normal;font-weight:normal;font-stretch:normal;font-size:2.11667px;font-family:monospace;-inkscape-font-specification:monospace;stroke-width:0.264583"
           id="tspan1416">          (make-channel-introduction</tspan><tspan
           sodipodi:role="line"
           x="99.614853"
           y="254.70547"
           style="font-style:normal;font-variant:normal;font-weight:normal;font-stretch:normal;font-size:2.11667px;font-family:monospace;-inkscape-font-specification:monospace;stroke-width:0.264583"
           id="tspan1418">            &quot;897c1a470da759236cc11798f4e0a5f7d4d59fbc&quot;</tspan><tspan
           sodipodi:role="line"
           x="99.614853"
           y="257.35132"
           style="font-style:normal;font-variant:normal;font-weight:normal;font-stretch:normal;font-size:2.11667px;font-family:monospace;-inkscape-font-specification:monospace;stroke-width:0.264583"
           id="tspan1420">            (openpgp-fingerprint</tspan><tspan
           sodipodi:role="line"
           x="99.614853"
           y="259.99716"
           style="font-style:normal;font-variant:normal;font-weight:normal;font-stretch:normal;font-size:2.11667px;font-family:monospace;-inkscape-font-specification:monospace;stroke-width:0.264583"
           id="tspan1422">              &quot;2A39 3FFF 68F4 EF7A 3D29  12AF 6F51 20A0 22FB B2D5&quot;))))</tspan><tspan
           sodipodi:role="line"
           x="99.614853"
           y="262.64297"
           style="font-style:normal;font-variant:normal;font-weight:normal;font-stretch:normal;font-size:2.11667px;font-family:monospace;-inkscape-font-specification:monospace;stroke-width:0.264583"
           id="tspan1424">      (channel</tspan><tspan
           sodipodi:role="line"
           x="99.614853"
           y="265.28882"
           style="font-style:normal;font-variant:normal;font-weight:normal;font-stretch:normal;font-size:2.11667px;font-family:monospace;-inkscape-font-specification:monospace;stroke-width:0.264583"
           id="tspan1426">        (name 'guix)</tspan><tspan
           sodipodi:role="line"
           x="99.614853"
           y="267.93466"
           style="font-style:normal;font-variant:normal;font-weight:normal;font-stretch:normal;font-size:2.11667px;font-family:monospace;-inkscape-font-specification:monospace;stroke-width:0.264583"
           id="tspan1428">        (url &quot;https://git.sjtu.edu.cn/sjtug/guix.git&quot;)</tspan><tspan
           sodipodi:role="line"
           x="99.614853"
           y="270.58051"
           style="font-style:normal;font-variant:normal;font-weight:normal;font-stretch:normal;font-size:2.11667px;font-family:monospace;-inkscape-font-specification:monospace;stroke-width:0.264583"
           id="tspan1430">        (commit</tspan><tspan
           sodipodi:role="line"
           x="99.614853"
           y="273.22635"
           style="font-style:normal;font-variant:normal;font-weight:normal;font-stretch:normal;font-size:2.11667px;font-family:monospace;-inkscape-font-specification:monospace;stroke-width:0.264583"
           id="tspan1432">          &quot;0efd68681dcec50d445a4fd080c315b999164828&quot;)</tspan><tspan
           sodipodi:role="line"
           x="99.614853"
           y="275.87216"
           style="font-style:normal;font-variant:normal;font-weight:normal;font-stretch:normal;font-size:2.11667px;font-family:monospace;-inkscape-font-specification:monospace;stroke-width:0.264583"
           id="tspan1434">        (introduction</tspan><tspan
           sodipodi:role="line"
           x="99.614853"
           y="278.51801"
           style="font-style:normal;font-variant:normal;font-weight:normal;font-stretch:normal;font-size:2.11667px;font-family:monospace;-inkscape-font-specification:monospace;stroke-width:0.264583"
           id="tspan1436">          (make-channel-introduction</tspan><tspan
           sodipodi:role="line"
           x="99.614853"
           y="281.16385"
           style="font-style:normal;font-variant:normal;font-weight:normal;font-stretch:normal;font-size:2.11667px;font-family:monospace;-inkscape-font-specification:monospace;stroke-width:0.264583"
           id="tspan1438">            &quot;9edb3f66fd807b096b48283debdcddccfea34bad&quot;</tspan><tspan
           sodipodi:role="line"
           x="99.614853"
           y="283.80969"
           style="font-style:normal;font-variant:normal;font-weight:normal;font-stretch:normal;font-size:2.11667px;font-family:monospace;-inkscape-font-specification:monospace;stroke-width:0.264583"
           id="tspan1440">            (openpgp-fingerprint</tspan><tspan
           sodipodi:role="line"
           x="99.614853"
           y="286.45554"
           style="font-style:normal;font-variant:normal;font-weight:normal;font-stretch:normal;font-size:2.11667px;font-family:monospace;-inkscape-font-specification:monospace;stroke-width:0.264583"
           id="tspan1442">              &quot;BBB0 2DDF 2CEA F6A8 0D1D  E643 A2A0 6DF2 A33A 54FA&quot;)))))</tspan><tspan
           sodipodi:role="line"
           x="99.614853"
           y="289.10135"
           style="font-style:normal;font-variant:normal;font-weight:normal;font-stretch:normal;font-size:2.11667px;font-family:monospace;-inkscape-font-specification:monospace;stroke-width:0.264583"
           id="tspan1444" /></text>
    </g>
    <g
       id="g1832"
       transform="translate(3.2072343,-11.759859)">
      <text
         xml:space="preserve"
         style="font-style:normal;font-weight:normal;font-size:5.64444px;line-height:1.25;font-family:sans-serif;fill:#000000;fill-opacity:1;stroke:none;stroke-width:0.264583"
         x="12.525919"
         y="242.83331"
         id="text1352"><tspan
           sodipodi:role="line"
           id="tspan1350"
           x="12.525919"
           y="242.83331"
           style="font-size:5.64444px;stroke-width:0.264583">manifest for list</tspan><tspan
           sodipodi:role="line"
           x="12.525919"
           y="249.88887"
           style="font-size:5.64444px;stroke-width:0.264583"
           id="tspan1802">of packages</tspan></text>
      <text
         xml:space="preserve"
         style="font-style:normal;font-variant:normal;font-weight:normal;font-stretch:normal;font-size:2.11667px;line-height:1.25;font-family:monospace;-inkscape-font-specification:monospace;fill:#000000;fill-opacity:1;stroke:none;stroke-width:0.264583"
         x="12.837356"
         y="253.16621"
         id="text1488"><tspan
           sodipodi:role="line"
           x="12.837356"
           y="253.16621"
           style="font-style:normal;font-variant:normal;font-weight:normal;font-stretch:normal;font-size:2.11667px;font-family:monospace;-inkscape-font-specification:monospace;stroke-width:0.264583"
           id="tspan1486">(specifications-&gt;manifest</tspan><tspan
           sodipodi:role="line"
           x="12.837356"
           y="255.81206"
           style="font-style:normal;font-variant:normal;font-weight:normal;font-stretch:normal;font-size:2.11667px;font-family:monospace;-inkscape-font-specification:monospace;stroke-width:0.264583"
           id="tspan1720"> '(</tspan><tspan
           sodipodi:role="line"
           x="12.837356"
           y="258.45789"
           style="font-style:normal;font-variant:normal;font-weight:normal;font-stretch:normal;font-size:2.11667px;font-family:monospace;-inkscape-font-specification:monospace;stroke-width:0.264583"
           id="tspan1722">   ;; R</tspan><tspan
           sodipodi:role="line"
           x="12.837356"
           y="261.10373"
           style="font-style:normal;font-variant:normal;font-weight:normal;font-stretch:normal;font-size:2.11667px;font-family:monospace;-inkscape-font-specification:monospace;stroke-width:0.264583"
           id="tspan1724">   &quot;r&quot;</tspan><tspan
           sodipodi:role="line"
           x="12.837356"
           y="263.74957"
           style="font-style:normal;font-variant:normal;font-weight:normal;font-stretch:normal;font-size:2.11667px;font-family:monospace;-inkscape-font-specification:monospace;stroke-width:0.264583"
           id="tspan1726">   &quot;r-yaml&quot;</tspan><tspan
           sodipodi:role="line"
           x="12.837356"
           y="266.39539"
           style="font-style:normal;font-variant:normal;font-weight:normal;font-stretch:normal;font-size:2.11667px;font-family:monospace;-inkscape-font-specification:monospace;stroke-width:0.264583"
           id="tspan1728">   &quot;r-xgboost&quot;</tspan><tspan
           sodipodi:role="line"
           x="12.837356"
           y="269.04123"
           style="font-style:normal;font-variant:normal;font-weight:normal;font-stretch:normal;font-size:2.11667px;font-family:monospace;-inkscape-font-specification:monospace;stroke-width:0.264583"
           id="tspan1730">   &quot;r-jsonlite&quot;</tspan><tspan
           sodipodi:role="line"
           x="12.837356"
           y="271.68707"
           style="font-style:normal;font-variant:normal;font-weight:normal;font-stretch:normal;font-size:2.11667px;font-family:monospace;-inkscape-font-specification:monospace;stroke-width:0.264583"
           id="tspan1732">   ))</tspan><tspan
           sodipodi:role="line"
           x="12.837356"
           y="274.33292"
           style="font-style:normal;font-variant:normal;font-weight:normal;font-stretch:normal;font-size:2.11667px;font-family:monospace;-inkscape-font-specification:monospace;stroke-width:0.264583"
           id="tspan1734" /></text>
    </g>
  </g>
</svg>
